<svg width="25" height="25" viewBox="0 0 25 25" fill="none" xmlns="http://www.w3.org/2000/svg">
<path fill-rule="evenodd" clip-rule="evenodd" d="M9.94751 0C9.24266 0 8.67127 0.55965 8.67127 1.25V3.22722C7.78396 3.57897 6.95917 4.04904 6.21716 4.61706L4.46704 3.62741C4.17392 3.46165 3.82555 3.41673 3.49861 3.50253C3.17166 3.58834 2.89292 3.79784 2.72367 4.08494L0.171196 8.41506C-0.181224 9.01292 0.027913 9.77741 0.638325 10.1226L2.38781 11.1119C2.32334 11.566 2.29008 12.0295 2.29008 12.5C2.29008 12.9705 2.32334 13.4339 2.38781 13.8881L0.638338 14.8774C0.345199 15.0431 0.131314 15.3161 0.0437001 15.6364C-0.0439009 15.9566 0.00195435 16.2978 0.171196 16.5849L2.72367 20.915C2.89292 21.2021 3.17167 21.4116 3.49862 21.4975C3.82557 21.5832 4.17392 21.5384 4.46706 21.3726L6.21719 20.3829C6.95919 20.9509 7.78397 21.421 8.67127 21.7727V23.75C8.67127 24.4404 9.24266 25 9.94751 25H15.0525C15.7573 25 16.3288 24.4404 16.3288 23.75V21.7727C17.216 21.421 18.0408 20.9509 18.7828 20.3829L20.5329 21.3726C20.8261 21.5384 21.1744 21.5832 21.5013 21.4975C21.8283 21.4116 22.1071 21.2021 22.2763 20.9151L24.8288 16.585C24.998 16.2979 25.0439 15.9566 24.9563 15.6364C24.8687 15.3162 24.6548 15.0431 24.3617 14.8774L22.6122 13.8881C22.6766 13.434 22.7099 12.9705 22.7099 12.5C22.7099 12.0295 22.6766 11.566 22.6122 11.1119L24.3617 10.1226C24.9721 9.77739 25.1813 9.0129 24.8288 8.41504L22.2763 4.08491C22.1071 3.7978 21.8283 3.58831 21.5013 3.5025C21.1744 3.4167 20.8261 3.46161 20.5329 3.62737L18.7828 4.61705C18.0408 4.04903 17.216 3.57897 16.3288 3.22722V1.25C16.3288 0.55965 15.7573 0 15.0525 0H9.94751ZM11.2238 4.11232V2.5H13.7763V4.11232C13.7763 4.66535 14.1473 5.15264 14.6884 5.31039C15.8512 5.64934 16.8999 6.25247 17.7611 7.05036C18.1711 7.4303 18.7873 7.50124 19.2762 7.2248L20.704 6.41744L21.9802 8.5825L20.5543 9.38884C20.0657 9.66506 19.8203 10.2226 19.9506 10.7601C20.0856 11.3172 20.1575 11.8996 20.1575 12.5C20.1575 13.1004 20.0856 13.6828 19.9506 14.2399C19.8203 14.7774 20.0657 15.3349 20.5543 15.6111L21.9802 16.4175L20.704 18.5825L19.2761 17.7751C18.7873 17.4988 18.1711 17.5696 17.7609 17.9496C16.8999 18.7475 15.8512 19.3506 14.6884 19.6895C14.1473 19.8473 13.7763 20.3346 13.7763 20.8876V22.5H11.2238V20.8876C11.2238 20.3346 10.8527 19.8473 10.3115 19.6895C9.14875 19.3506 8.10015 18.7475 7.23896 17.9496C6.82888 17.5696 6.21267 17.4988 5.72382 17.7751L4.29606 18.5825L3.01983 16.4175L4.44575 15.6111C4.93424 15.3349 5.17964 14.7774 5.04936 14.2399C4.91434 13.6828 4.84256 13.1004 4.84256 12.5C4.84256 11.8996 4.91433 11.3172 5.04936 10.7601C5.17964 10.2226 4.93422 9.66509 4.44575 9.38886L3.01983 8.58254L4.29606 6.41747L5.72379 7.22483C6.21266 7.50126 6.82885 7.43031 7.23894 7.05037C8.10014 6.25249 9.14875 5.64935 10.3115 5.31039C10.8527 5.15264 11.2238 4.66535 11.2238 4.11232ZM9.94753 12.5C9.94753 11.1193 11.0903 10 12.5 10C13.9098 10 15.0525 11.1193 15.0525 12.5C15.0525 13.8807 13.9098 15 12.5 15C11.0903 15 9.94753 13.8807 9.94753 12.5ZM12.5 7.5C9.68062 7.5 7.39505 9.73857 7.39505 12.5C7.39505 15.2614 9.68062 17.5 12.5 17.5C15.3194 17.5 17.605 15.2614 17.605 12.5C17.605 9.73857 15.3194 7.5 12.5 7.5Z" fill="black"/>
</svg>
