<svg width="25" height="25" viewBox="0 0 25 25" fill="none" xmlns="http://www.w3.org/2000/svg">
<path fill-rule="evenodd" clip-rule="evenodd" d="M12.5 22.9167C18.2529 22.9167 22.9167 18.2529 22.9167 12.5C22.9167 6.74703 18.2529 2.08333 12.5 2.08333C6.74703 2.08333 2.08333 6.74703 2.08333 12.5C2.08333 18.2529 6.74703 22.9167 12.5 22.9167ZM12.5 25C19.4036 25 25 19.4036 25 12.5C25 5.59644 19.4036 0 12.5 0C5.59644 0 0 5.59644 0 12.5C0 19.4036 5.59644 25 12.5 25ZM13.5417 16.6667V18.75H11.4583V16.6667H13.5417ZM10.4167 10.3219C10.4167 9.25365 11.319 8.33333 12.5 8.33333C13.681 8.33333 14.5833 9.25365 14.5833 10.3219C14.5833 10.7486 14.3265 11.2543 13.7606 11.8276C13.2119 12.3835 12.5144 12.8601 11.9344 13.235L11.4583 13.5429V15.625H13.5417V14.6699C14.0711 14.3097 14.6983 13.8432 15.2433 13.2911C15.9469 12.5783 16.6667 11.5689 16.6667 10.3219C16.6667 8.0431 14.7707 6.25 12.5 6.25C10.2293 6.25 8.33333 8.0431 8.33333 10.3219H10.4167Z" fill="black"/>
</svg>
